<?xml version="1.0" encoding="utf-8"?>
<!-- Generator: Adobe Illustrator 28.1.0, SVG Export Plug-In . SVG Version: 6.00 Build 0)  -->
<svg version="1.1" id="Camada_1" xmlns="http://www.w3.org/2000/svg" xmlns:xlink="http://www.w3.org/1999/xlink" x="0px" y="0px"
	 viewBox="0 0 113 54.8" style="enable-background:new 0 0 113 54.8;" xml:space="preserve">
<style type="text/css">
	.st0{fill-rule:evenodd;clip-rule:evenodd;fill:#FFFFFF;}
	.st1{fill-rule:evenodd;clip-rule:evenodd;fill:#FEC704;}
	.st2{fill-rule:evenodd;clip-rule:evenodd;fill:#96C11E;}
	.st3{fill:#45A8DF;}
	.st4{fill:#FFFFFF;}
</style>
<g>
	<g>
		<path class="st0" d="M3.5,47.2h2.3v-1.5H3.9c-0.4,0-0.7,0-1-0.1c-0.3-0.1-0.5-0.2-0.6-0.3c-0.2-0.2-0.3-0.4-0.3-0.6
			c-0.1-0.3-0.1-0.6-0.1-1c0-0.4,0-0.7,0.1-1c0.1-0.3,0.2-0.5,0.3-0.6c0.2-0.2,0.4-0.3,0.6-0.3c0.3-0.1,0.6-0.1,1-0.1h1.9v-1.5H3.5
			c-1.2,0-2.1,0.3-2.7,0.9C0.3,41.6,0,42.5,0,43.7c0,1.2,0.3,2.1,0.9,2.7C1.4,46.9,2.3,47.2,3.5,47.2 M10.1,45.8
			c-0.6,0-1-0.2-1.4-0.5c-0.3-0.3-0.5-0.9-0.5-1.7c0-0.8,0.2-1.3,0.5-1.7c0.3-0.3,0.8-0.5,1.4-0.5c0.3,0,0.5,0,0.8,0.1
			c0.2,0.1,0.4,0.2,0.6,0.4c0.2,0.2,0.3,0.4,0.4,0.7c0.1,0.3,0.1,0.6,0.1,1c0,0.4,0,0.7-0.1,1c-0.1,0.3-0.2,0.5-0.4,0.7
			c-0.2,0.2-0.3,0.3-0.6,0.4C10.6,45.8,10.4,45.8,10.1,45.8 M13.7,43.7c0-1.2-0.3-2.1-0.9-2.7c-0.6-0.6-1.5-0.9-2.7-0.9
			S8,40.3,7.3,41c-0.6,0.6-0.9,1.5-0.9,2.7s0.3,2.1,0.9,2.7c0.6,0.6,1.5,0.9,2.7,0.9s2.1-0.3,2.7-0.9C13.4,45.8,13.7,44.9,13.7,43.7
			 M19,47.2h2.2v-7h-1.6v4.8L17,40.2h-2.2v7h1.6v-4.9L19,47.2z M22.5,47.2h3.6c0.7,0,1.2-0.2,1.6-0.5c0.4-0.4,0.5-0.9,0.5-1.6
			c0-0.7-0.2-1.2-0.5-1.6c-0.4-0.4-0.9-0.5-1.6-0.5h-1.3c-0.4,0-0.7-0.2-0.7-0.7c0-0.4,0.2-0.7,0.7-0.7h3.2v-1.5h-3.5
			c-1.4,0-2.1,0.7-2.1,2.1c0,1.4,0.7,2.1,2.1,2.1h1.3c0.4,0,0.7,0.2,0.7,0.7c0,0.4-0.2,0.7-0.7,0.7h-3.2V47.2z M30.9,47.2h1.7v-5.6
			h2.2v-1.5h-6.2v1.5h2.2V47.2z M37.4,41.6h1.8c0.3,0,0.5,0.1,0.7,0.2c0.1,0.1,0.2,0.3,0.2,0.6c0,0.3-0.1,0.5-0.2,0.6
			c-0.1,0.1-0.4,0.2-0.7,0.2h-1.8V41.6z M40.1,47.2h2.1l-1.7-2.6c0.1,0,0.3-0.1,0.4-0.2c0.2-0.1,0.3-0.2,0.4-0.4
			c0.1-0.2,0.3-0.4,0.3-0.6c0.1-0.3,0.1-0.6,0.1-1c0-0.8-0.2-1.4-0.6-1.7c-0.4-0.4-1-0.6-1.8-0.6h-3.8v7h1.7v-2.5h1.2L40.1,47.2z
			 M45.8,47.2h3.5v-7h-1.7v5.6h-1.3c-0.3,0-0.5,0-0.7-0.1c-0.2-0.1-0.3-0.1-0.5-0.3c-0.1-0.1-0.2-0.3-0.3-0.5
			c-0.1-0.2-0.1-0.4-0.1-0.7v-4H43v4.3C43,46.3,44,47.2,45.8,47.2 M50.6,47.2h3.6c0.7,0,1.2-0.2,1.6-0.5c0.4-0.4,0.5-0.9,0.5-1.6
			c0-0.7-0.2-1.2-0.5-1.6c-0.4-0.4-0.9-0.5-1.6-0.5h-1.3c-0.4,0-0.7-0.2-0.7-0.7c0-0.4,0.2-0.7,0.7-0.7H56v-1.5h-3.5
			c-1.4,0-2.1,0.7-2.1,2.1c0,1.4,0.7,2.1,2.1,2.1h1.3c0.4,0,0.7,0.2,0.7,0.7c0,0.4-0.2,0.7-0.7,0.7h-3.2V47.2z M57.5,47.2h1.7v-7
			h-1.7V47.2z M62.2,47.2h1.7v-5.6h2.2v-1.5h-6.2v1.5h2.2V47.2z M69.9,47.2h2.3v-1.5h-1.9c-0.6,0-1.1-0.1-1.4-0.3
			c-0.3-0.2-0.5-0.5-0.6-1h3.7v-1.5h-3.7c0-0.3,0.1-0.5,0.2-0.6c0.1-0.2,0.2-0.3,0.4-0.4s0.4-0.2,0.6-0.2c0.2,0,0.5-0.1,0.8-0.1H72
			v-1.5h-2.2c-1.2,0-2.1,0.3-2.7,0.9c-0.6,0.6-0.9,1.5-0.9,2.6c0,1.2,0.3,2.1,0.9,2.7C67.8,46.9,68.7,47.2,69.9,47.2"/>
		<path class="st0" d="M77.4,44.4h2.2c0.5,0,0.7,0.2,0.7,0.7c0,0.5-0.2,0.7-0.7,0.7h-2.2V44.4z M77.4,41.6h1.9
			c0.2,0,0.4,0.1,0.5,0.2C80,41.9,80,42,80,42.3c0,0.2-0.1,0.4-0.2,0.5c-0.1,0.1-0.3,0.2-0.5,0.2h-1.9V41.6z M75.7,47.2H80
			c0.6,0,1.1-0.1,1.5-0.4c0.4-0.3,0.6-0.8,0.6-1.4c0-0.3-0.1-0.6-0.1-0.8c-0.1-0.2-0.2-0.4-0.4-0.5c-0.1-0.1-0.3-0.2-0.4-0.3
			c-0.2-0.1-0.3-0.1-0.4-0.1c0,0,0.1,0,0.2-0.1c0.1,0,0.2-0.1,0.3-0.2c0.1-0.1,0.2-0.3,0.3-0.5c0.1-0.2,0.1-0.5,0.1-0.8
			c0-0.6-0.2-1.1-0.6-1.4c-0.4-0.3-0.9-0.5-1.5-0.5h-4.1V47.2z M85,41.6h1.8c0.3,0,0.5,0.1,0.7,0.2c0.1,0.1,0.2,0.3,0.2,0.6
			c0,0.3-0.1,0.5-0.2,0.6c-0.1,0.1-0.4,0.2-0.7,0.2H85V41.6z M87.7,47.2h2.1l-1.7-2.6c0.1,0,0.3-0.1,0.4-0.2
			c0.2-0.1,0.3-0.2,0.4-0.4c0.1-0.2,0.3-0.4,0.3-0.6c0.1-0.3,0.1-0.6,0.1-1c0-0.8-0.2-1.4-0.6-1.7c-0.4-0.4-1-0.6-1.8-0.6h-3.8v7H85
			v-2.5h1.2L87.7,47.2z M93.6,41.8l0.9,2.6h-1.7L93.6,41.8z M95.4,47.2h1.9l-2.7-7h-2l-2.7,7h1.9l0.5-1.4h2.7L95.4,47.2z M97.8,47.2
			h3.6c0.7,0,1.2-0.2,1.6-0.5c0.4-0.4,0.5-0.9,0.5-1.6c0-0.7-0.2-1.2-0.5-1.6c-0.4-0.4-0.9-0.5-1.6-0.5h-1.3c-0.4,0-0.7-0.2-0.7-0.7
			c0-0.4,0.2-0.7,0.7-0.7h3.1v-1.5h-3.5c-1.4,0-2.1,0.7-2.1,2.1c0,1.4,0.7,2.1,2.1,2.1h1.3c0.4,0,0.7,0.2,0.7,0.7
			c0,0.4-0.2,0.7-0.7,0.7h-3.2V47.2z M104.7,47.2h1.7v-7h-1.7V47.2z M110.6,47.2h2.4v-1.5h-1.9c-0.3,0-0.5,0-0.7-0.1
			c-0.2-0.1-0.3-0.1-0.5-0.3c-0.1-0.1-0.2-0.3-0.3-0.5c-0.1-0.2-0.1-0.4-0.1-0.7v-4h-1.7v4.3C107.8,46.3,108.7,47.2,110.6,47.2"/>
	</g>
	<g>
		<path class="st1" d="M83.8,16.4L65.7,0l-4.9,4.4c4.9,1.8,8.4,6.5,8.4,12c0,5.5-3.5,10.2-8.4,12l4.9,4.4L83.8,16.4z"/>
		<path class="st2" d="M47.5,7.3H29.2v18.2l18.5,0c-2.4-2.3-3.9-5.6-3.9-9.2C43.8,12.8,45.2,9.6,47.5,7.3"/>
		<path class="st3" d="M56.5,4.6c6.5,0,11.8,5.3,11.8,11.9c0,6.5-5.3,11.9-11.8,11.9c-6.5,0-11.8-5.3-11.8-11.9
			C44.7,9.9,50,4.6,56.5,4.6"/>
	</g>
	<g>
		<path class="st4" d="M27.7,51c-0.6,0-1,0.2-1.3,0.5c-0.3,0.3-0.4,0.8-0.4,1.4s0.1,1.1,0.4,1.4c0.3,0.3,0.7,0.5,1.3,0.5
			c0.6,0,1-0.2,1.3-0.5c0.3-0.3,0.4-0.8,0.4-1.4c0-0.6-0.1-1.1-0.4-1.4C28.7,51.1,28.2,51,27.7,51 M27.7,54.3
			c-0.8,0-1.2-0.5-1.2-1.5c0-1,0.4-1.5,1.2-1.5c0.8,0,1.2,0.5,1.2,1.5C28.9,53.9,28.5,54.3,27.7,54.3"/>
		<path class="st4" d="M32.8,52.6h-0.5c-0.4,0-0.6-0.2-0.6-0.6c0-0.4,0.2-0.6,0.6-0.6h1.4V51h-1.5c-0.3,0-0.6,0.1-0.8,0.3
			c-0.2,0.2-0.3,0.4-0.3,0.8c0,0.3,0.1,0.6,0.3,0.8c0.2,0.2,0.4,0.2,0.8,0.2h0.5c0.4,0,0.6,0.2,0.6,0.6c0,0.4-0.2,0.6-0.6,0.6h-1.5
			v0.4h1.5c0.3,0,0.6-0.1,0.8-0.3c0.2-0.2,0.3-0.4,0.3-0.8c0-0.3-0.1-0.6-0.3-0.8C33.4,52.7,33.1,52.6,32.8,52.6"/>
		<path class="st4" d="M35.6,54.2c-0.2,0-0.3-0.1-0.4-0.2c-0.1-0.1-0.2-0.2-0.2-0.4c0-0.1-0.1-0.3-0.1-0.5H37v-0.4h-2.1
			c0-0.2,0-0.4,0.1-0.5c0-0.1,0.1-0.3,0.2-0.4c0.1-0.1,0.2-0.2,0.4-0.2s0.4-0.1,0.6-0.1h0.8V51h-0.9c-0.6,0-1,0.2-1.3,0.5
			c-0.3,0.3-0.4,0.8-0.4,1.4c0,0.6,0.1,1.1,0.4,1.4c0.3,0.3,0.7,0.5,1.3,0.5h1v-0.4h-0.9C36,54.3,35.8,54.3,35.6,54.2"/>
		<path class="st4" d="M40.3,54.3h-0.9c-0.3,0-0.6-0.1-0.7-0.2c-0.1-0.1-0.2-0.4-0.2-0.7V51h-0.5v2.3c0,0.9,0.5,1.4,1.4,1.4h1.5V51
			h-0.5V54.3z"/>
		<path class="st4" d="M44.4,52.6h-0.5c-0.4,0-0.6-0.2-0.6-0.6c0-0.4,0.2-0.6,0.6-0.6h1.4V51h-1.5c-0.3,0-0.6,0.1-0.8,0.3
			c-0.2,0.2-0.3,0.4-0.3,0.8c0,0.3,0.1,0.6,0.3,0.8c0.2,0.2,0.4,0.2,0.8,0.2h0.5c0.4,0,0.6,0.2,0.6,0.6c0,0.4-0.2,0.6-0.6,0.6h-1.5
			v0.4h1.5c0.3,0,0.6-0.1,0.8-0.3c0.2-0.2,0.3-0.4,0.3-0.8c0-0.3-0.1-0.6-0.3-0.8C45,52.7,44.7,52.6,44.4,52.6"/>
		<path class="st4" d="M48.6,54.3h-0.9c-0.3,0-0.6-0.1-0.7-0.2c-0.1-0.1-0.2-0.4-0.2-0.7V51h-0.5v2.3c0,0.9,0.5,1.4,1.4,1.4h1.5V51
			h-0.5V54.3z"/>
		<path class="st4" d="M51,54.2c-0.2-0.1-0.3-0.1-0.4-0.3c-0.1-0.1-0.2-0.3-0.2-0.4c0-0.2-0.1-0.4-0.1-0.6c0-0.2,0-0.5,0.1-0.6
			c0-0.2,0.1-0.3,0.2-0.4c0.1-0.1,0.2-0.2,0.4-0.3c0.2-0.1,0.4-0.1,0.6-0.1h0.9V51h-1c-0.6,0-1,0.2-1.3,0.4
			c-0.3,0.3-0.4,0.8-0.4,1.4c0,0.6,0.1,1.1,0.4,1.4s0.7,0.4,1.3,0.4h1v-0.4h-0.9C51.4,54.3,51.2,54.3,51,54.2"/>
		<path class="st4" d="M54.2,54.2c-0.2,0-0.3-0.1-0.4-0.2c-0.1-0.1-0.2-0.2-0.2-0.4c0-0.1-0.1-0.3-0.1-0.5h2.1v-0.4h-2.1
			c0-0.2,0-0.4,0.1-0.5c0-0.1,0.1-0.3,0.2-0.4c0.1-0.1,0.2-0.2,0.4-0.2s0.4-0.1,0.6-0.1h0.8V51h-0.9c-0.6,0-1,0.2-1.3,0.5
			c-0.3,0.3-0.4,0.8-0.4,1.4c0,0.6,0.1,1.1,0.4,1.4c0.3,0.3,0.7,0.5,1.3,0.5h1v-0.4h-0.9C54.6,54.3,54.4,54.3,54.2,54.2"/>
		<path class="st4" d="M57.9,52.6h-0.5c-0.4,0-0.6-0.2-0.6-0.6c0-0.4,0.2-0.6,0.6-0.6h1.4V51h-1.5c-0.3,0-0.6,0.1-0.8,0.3
			c-0.2,0.2-0.3,0.4-0.3,0.8c0,0.3,0.1,0.6,0.3,0.8c0.2,0.2,0.4,0.2,0.8,0.2h0.5c0.4,0,0.6,0.2,0.6,0.6c0,0.4-0.2,0.6-0.6,0.6h-1.5
			v0.4h1.5c0.3,0,0.6-0.1,0.8-0.3c0.2-0.2,0.3-0.4,0.3-0.8c0-0.3-0.1-0.6-0.3-0.8C58.5,52.7,58.2,52.6,57.9,52.6"/>
		<path class="st4" d="M61.1,52.6h-0.5c-0.4,0-0.6-0.2-0.6-0.6c0-0.4,0.2-0.6,0.6-0.6H62V51h-1.5c-0.3,0-0.6,0.1-0.8,0.3
			c-0.2,0.2-0.3,0.4-0.3,0.8c0,0.3,0.1,0.6,0.3,0.8c0.2,0.2,0.4,0.2,0.8,0.2h0.5c0.4,0,0.6,0.2,0.6,0.6c0,0.4-0.2,0.6-0.6,0.6h-1.5
			v0.4h1.5c0.3,0,0.6-0.1,0.8-0.3c0.2-0.2,0.3-0.4,0.3-0.8c0-0.3-0.1-0.6-0.3-0.8C61.7,52.7,61.5,52.6,61.1,52.6"/>
		<path class="st4" d="M64.5,51c-0.6,0-1,0.2-1.3,0.5c-0.3,0.3-0.4,0.8-0.4,1.4s0.1,1.1,0.4,1.4c0.3,0.3,0.7,0.5,1.3,0.5
			c0.6,0,1-0.2,1.3-0.5c0.3-0.3,0.4-0.8,0.4-1.4c0-0.6-0.1-1.1-0.4-1.4C65.5,51.1,65,51,64.5,51 M64.5,54.3c-0.8,0-1.2-0.5-1.2-1.5
			c0-1,0.4-1.5,1.2-1.5c0.8,0,1.2,0.5,1.2,1.5C65.7,53.9,65.3,54.3,64.5,54.3"/>
		<path class="st4" d="M69.7,51c-0.6,0-1,0.2-1.3,0.5c-0.3,0.3-0.4,0.8-0.4,1.4s0.1,1.1,0.4,1.4c0.3,0.3,0.7,0.5,1.3,0.5
			c0.6,0,1-0.2,1.3-0.5c0.3-0.3,0.4-0.8,0.4-1.4c0-0.6-0.1-1.1-0.4-1.4C70.7,51.1,70.3,51,69.7,51 M69.7,54.3
			c-0.8,0-1.2-0.5-1.2-1.5c0-1,0.4-1.5,1.2-1.5c0.8,0,1.2,0.5,1.2,1.5C70.9,53.9,70.5,54.3,69.7,54.3"/>
		<polygon class="st4" points="74.7,54 72.8,51 72.2,51 72.2,54.7 72.7,54.7 72.7,51.7 74.6,54.7 75.2,54.7 75.2,51 74.7,51 		"/>
		<path class="st4" d="M76.9,54.1c-0.1-0.1-0.2-0.4-0.2-0.7V51h-0.5v2.3c0,0.9,0.5,1.4,1.4,1.4h0.9v-0.4h-0.8
			C77.3,54.3,77,54.2,76.9,54.1"/>
		<rect x="79.1" y="51" class="st4" width="0.5" height="3.7"/>
		<polygon class="st4" points="83.1,54 81.1,51 80.6,51 80.6,54.7 81,54.7 81,51.7 83,54.7 83.5,54.7 83.5,51 83.1,51 		"/>
		<path class="st4" d="M86.1,54.3c-0.2,0-0.4,0-0.6-0.1c-0.2,0-0.3-0.1-0.4-0.2c-0.1-0.1-0.2-0.2-0.2-0.4c0-0.1-0.1-0.3-0.1-0.5h2.1
			v-0.4h-2.1c0-0.2,0-0.4,0.1-0.5c0-0.1,0.1-0.3,0.2-0.4c0.1-0.1,0.2-0.2,0.4-0.2s0.4-0.1,0.6-0.1H87V51H86c-0.6,0-1,0.2-1.3,0.5
			c-0.3,0.3-0.4,0.8-0.4,1.4c0,0.6,0.1,1.1,0.4,1.4c0.3,0.3,0.7,0.5,1.3,0.5h1v-0.4H86.1z"/>
	</g>
</g>
</svg>
